<svg width="51" height="51" viewBox="0 0 51 51" fill="none" xmlns="http://www.w3.org/2000/svg">
<path d="M43.9212 5.50684H7.73482C6.86458 5.50684 6.1615 6.20991 6.1615 7.08016V43.2665C6.1615 44.1368 6.86458 44.8399 7.73482 44.8399H43.9212C44.7914 44.8399 45.4945 44.1368 45.4945 43.2665V7.08016C45.4945 6.20991 44.7914 5.50684 43.9212 5.50684ZM17.8287 39.0235H11.9926V20.2518H17.8287V39.0235ZM14.9131 17.6853C14.2441 17.6853 13.5901 17.4869 13.0338 17.1152C12.4775 16.7436 12.044 16.2153 11.7879 15.5972C11.5319 14.9791 11.4649 14.2989 11.5955 13.6428C11.726 12.9866 12.0481 12.3839 12.5212 11.9108C12.9943 11.4377 13.597 11.1156 14.2532 10.985C14.9093 10.8545 15.5895 10.9215 16.2076 11.1775C16.8257 11.4336 17.354 11.8671 17.7257 12.4234C18.0973 12.9797 18.2957 13.6337 18.2957 14.3027C18.2908 16.171 16.7765 17.6853 14.9131 17.6853ZM39.6781 39.0235H33.847V29.8933C33.847 27.7152 33.8077 24.9177 30.8135 24.9177C27.7799 24.9177 27.3128 27.2875 27.3128 29.736V39.0235H21.4866V20.2518H27.0817V22.8183H27.1604C27.9372 21.3433 29.84 19.7847 32.6818 19.7847C38.5916 19.7847 39.6781 23.6738 39.6781 28.7281V39.0235Z" fill="#112D57"/>
</svg>
